<svg xmlns="http://www.w3.org/2000/svg" width="60" height="60" viewBox="0 0 60 60" fill="none">
  <rect width="60" height="60" rx="30" fill="#49A6EA"/>
  <path d="M33.488 16.2C38.0728 16.2 42.6576 16.2 47.3814 16.2C47.3869 19.9054 47.3869 19.9054 47.3883 21.4587C47.3883 21.8139 47.3888 22.1695 47.3888 22.5247C47.3892 22.5914 47.3892 22.5914 47.3892 22.66C47.3897 23.3764 47.3906 24.0933 47.392 24.8102C47.3934 25.547 47.3943 26.2838 47.3943 27.0211C47.3948 27.475 47.3953 27.9284 47.3962 28.3822C47.3971 28.6948 47.3971 29.0069 47.3971 29.3191C47.3971 29.4988 47.3971 29.678 47.398 29.8577C47.4022 30.908 47.3559 31.9528 47.1294 32.9823C47.1183 33.0342 47.1067 33.086 47.0952 33.1398C46.4005 36.1375 44.7013 39.0398 42.2408 40.9303C42.1959 40.9659 42.1514 41.0016 42.1051 41.0386C39.8229 42.8401 36.9062 43.997 33.9789 43.9877C33.908 43.9877 33.908 43.9877 33.8353 43.9877C33.7195 43.9873 33.6038 43.9873 33.488 43.9868C33.4871 43.3838 33.4861 42.7809 33.4857 42.1779C33.4852 41.8977 33.4852 41.618 33.4843 41.3378C33.4838 41.0678 33.4838 40.7978 33.4838 40.5278C33.4833 40.4245 33.4833 40.3213 33.4829 40.2185C33.4829 40.074 33.4829 39.9299 33.4829 39.7859C33.4824 39.7428 33.4824 39.6998 33.4824 39.6553C33.4829 39.3608 33.4829 39.3608 33.5343 39.3094C33.6177 39.3015 33.7015 39.2964 33.7848 39.2927C35.1807 39.2186 36.5167 38.9245 37.7486 38.2442C37.8111 38.2109 37.8732 38.1775 37.9357 38.1446C40.1054 36.9743 41.649 34.9482 42.3571 32.6007C42.4617 32.2335 42.54 31.8625 42.5997 31.4855C42.6053 31.4526 42.6104 31.4198 42.6159 31.3855C42.6775 30.9557 42.6822 30.5301 42.7039 30.0934C39.6627 30.0934 36.6214 30.0934 33.488 30.0934C33.488 25.5086 33.488 20.9238 33.488 16.2Z" fill="white"/>
  <path d="M13.2048 16.2C17.7896 16.2 22.3744 16.2 27.0982 16.2C27.1037 19.9054 27.1037 19.9054 27.1051 21.4587C27.1051 21.8139 27.1056 22.1695 27.1056 22.5247C27.106 22.5914 27.106 22.5914 27.106 22.66C27.1065 23.3764 27.1074 24.0933 27.1088 24.8102C27.1102 25.547 27.1111 26.2838 27.1111 27.0211C27.1116 27.475 27.1121 27.9284 27.113 28.3822C27.1139 28.6948 27.1139 29.0069 27.1139 29.3191C27.1139 29.4988 27.1139 29.678 27.1148 29.8577C27.119 30.908 27.0727 31.9528 26.8462 32.9823C26.8351 33.0342 26.8235 33.086 26.812 33.1398C26.1173 36.1375 24.4181 39.0398 21.9576 40.9303C21.9127 40.9659 21.8682 41.0016 21.8219 41.0386C19.5397 42.8401 16.623 43.997 13.6957 43.9877C13.6248 43.9877 13.6248 43.9877 13.5521 43.9877C13.4363 43.9873 13.3206 43.9873 13.2048 43.9868C13.2038 43.3838 13.2029 42.7809 13.2025 42.1779C13.202 41.8977 13.202 41.618 13.2011 41.3378C13.2006 41.0678 13.2006 40.7978 13.2006 40.5278C13.2001 40.4245 13.2001 40.3213 13.1997 40.2185C13.1997 40.074 13.1997 39.9299 13.1997 39.7859C13.1992 39.7428 13.1992 39.6998 13.1992 39.6553C13.1997 39.3608 13.1997 39.3608 13.2511 39.3094C13.3344 39.3015 13.4183 39.2964 13.5016 39.2927C14.8975 39.2186 16.2335 38.9245 17.4654 38.2442C17.5279 38.2109 17.59 38.1775 17.6525 38.1446C19.8222 36.9743 21.3658 34.9482 22.0739 32.6007C22.1785 32.2335 22.2568 31.8625 22.3165 31.4855C22.3221 31.4526 22.3272 31.4198 22.3327 31.3855C22.3943 30.9557 22.399 30.5301 22.4207 30.0934C19.3795 30.0934 16.3382 30.0934 13.2048 30.0934C13.2048 25.5086 13.2048 20.9238 13.2048 16.2Z" fill="white"/>
</svg>